<svg version="1.2" xmlns="http://www.w3.org/2000/svg" viewBox="0 0 968 745" width="2000" height="1539">
	<style>
		.s0 { fill: #f07aab } 
		.s1 { fill: #050505 } 
		.s2 { fill: #0fa99d } 
		.s3 { fill: #f2765a } 
		.s4 { fill: #fefefe } 
		.s5 { fill: #9269ad } 
		.s6 { fill: #d0af8a } 
	</style>
	<g id="Folder 1">
		<path id="&lt;Compound Path&gt;" fill-rule="evenodd" class="s0" d="m779.54 226.07v-165.48h-61.84v-17.57h142.51v17.57h-61.84v165.48zm-110.29 0l-120.74-152.33v152.33h-18.33v-183.05h16.61l118.21 149.04v-149.04h18.33v183.05zm-187.89-183.05v183.06h-18.84v-183.06zm-74.68 183.05l-56.51-73.49h-53.81v73.49h-18.84v-183.05h77.34c11.26 0 21.4 1.64 30.13 4.86 8.79 3.26 16.12 7.79 21.79 13.45 4.47 4.47 8 9.77 10.5 15.74 2.5 5.99 3.77 12.45 3.77 19.21v0.51c0 7.79-1.41 14.88-4.18 21.05-2.77 6.16-6.67 11.55-11.58 16.02-4.87 4.42-10.69 8.05-17.29 10.78-5.15 2.13-10.71 3.76-16.59 4.86l59.16 76.57zm-53.35-91.06c7.14 0 13.81-0.9 19.86-2.68 5.97-1.75 11.16-4.29 15.43-7.54 4.2-3.21 7.56-7.17 9.98-11.78 2.39-4.57 3.6-9.9 3.6-15.84v-0.51c0-11.22-4-19.8-12.22-26.24-8.32-6.52-20.39-9.83-35.89-9.83h-57.73v74.42zm-245.11 91.06v-183.05h67.2c10.03 0 19.3 1.28 27.57 3.8 8.33 2.54 15.63 6.29 21.71 11.14 6.14 4.89 10.97 10.93 14.35 17.96 3.38 7.04 5.09 15.17 5.09 24.16v0.51c0 9.71-1.98 18.42-5.89 25.89-3.91 7.45-9.25 13.74-15.9 18.7-6.58 4.92-14.31 8.65-22.97 11.1-8.56 2.42-17.73 3.65-27.25 3.65h-45.07v66.14zm64.67-83.71c7.96 0 15.28-0.98 21.74-2.94 6.38-1.92 11.91-4.72 16.41-8.3 4.47-3.54 8-7.9 10.5-12.93 2.5-5.03 3.76-10.69 3.76-16.84v-0.51c0-6.67-1.22-12.55-3.64-17.49-2.41-4.92-5.83-9.08-10.18-12.37-4.43-3.34-9.83-5.93-16.05-7.69-6.31-1.79-13.38-2.7-21.02-2.7h-47.35v81.77z"/>
		<path id="&lt;Compound Path&gt;" fill-rule="evenodd" class="s1" d="m863.04 63.42h-61.83v165.49h-24.51v-165.49h-61.83v-23.23h148.17zm-176.89 165.48h-18.28l-1.7-2.14-114.84-144.89v147.03h-23.99v-188.72h20.81l1.7 2.15 112.31 141.6v-143.75h23.99zm-201.97 0h-24.5v-188.71h24.5zm-98.22-183.68c9.18 3.4 16.85 8.14 22.82 14.11 4.72 4.73 8.46 10.33 11.1 16.64 2.65 6.34 3.99 13.17 3.99 20.3v0.51c0 8.2-1.49 15.67-4.43 22.22-2.93 6.52-7.05 12.22-12.25 16.94-5.12 4.65-11.22 8.46-18.12 11.31q-6.01 2.48-12.68 4.08l52.88 68.45 7.05 9.12h-31.04l-1.7-2.21-54.81-71.28h-49.59v73.49h-24.5v-188.72h80.17c11.6 0 22.06 1.7 31.11 5.04zm-105.61 0.62v177.4h13.17v-73.49h58.04l56.51 73.49h16.73l-58.55-75.78q11.15-1.51 20.66-5.44 9.5-3.93 16.47-10.27 6.97-6.33 10.9-15.07 3.92-8.75 3.93-19.9v-0.51q0-9.62-3.55-18.12-3.55-8.49-9.88-14.82-8.12-8.11-20.79-12.8-12.67-4.68-29.14-4.69zm-76.53-1.74c8.67 2.65 16.3 6.57 22.66 11.64 6.47 5.16 11.56 11.53 15.13 18.95 3.57 7.42 5.37 15.96 5.37 25.39v0.5c0 10.17-2.09 19.32-6.22 27.21-4.1 7.83-9.72 14.44-16.7 19.65-6.87 5.12-14.91 9.01-23.9 11.55-8.81 2.5-18.24 3.76-28.02 3.76h-42.24v66.15h-24.5v-188.72h70.03c10.3 0 19.86 1.32 28.39 3.92zm-92.76 1.74v177.4h13.18v-66.15h47.9q13.94 0.01 26.48-3.54 12.55-3.55 22.05-10.65 9.5-7.09 15.08-17.74 5.57-10.64 5.57-24.58v-0.5q0-12.93-4.81-22.94-4.82-10.01-13.56-16.98-8.75-6.97-20.78-10.64-12.04-3.68-26.74-3.68zm609.47 0v11.91h61.84v165.49h13.18v-165.49h61.83v-11.91zm-52.71 0v154.34l-122.4-154.34h-12.42v177.4h12.67v-157.63l124.94 157.63h9.88v-177.4zm-202.48 0v177.4h13.18v-177.4zm-171.82 11.91h60.57q24.33 0.01 37.63 10.43 13.31 10.42 13.31 28.47v0.51q0 9.66-3.93 17.16-3.93 7.5-10.77 12.71-6.84 5.22-16.35 8.01-9.5 2.79-20.65 2.79h-59.81zm5.66 74.42h54.15c6.86 0 13.27-0.86 19.06-2.56 5.64-1.66 10.52-4.04 14.51-7.08 3.93-3 6.93-6.54 9.19-10.84 2.17-4.16 3.28-9.05 3.28-14.54v-0.5c0-10.29-3.65-18.14-11.14-24.02-7.81-6.11-19.3-9.22-34.14-9.22h-54.91zm-174.94-74.42h50.17q11.91 0 21.8 2.81 9.88 2.8 16.98 8.16 7.09 5.35 11.02 13.38 3.93 8.03 3.93 18.73v0.52q0 9.94-4.06 18.09-4.05 8.16-11.27 13.89-7.23 5.74-17.36 8.8-10.14 3.06-22.56 3.05h-48.65zm5.66 81.77h42.99c7.69 0 14.73-0.94 20.92-2.81 6.05-1.83 11.25-4.45 15.48-7.81 4.14-3.29 7.41-7.32 9.72-11.98 2.3-4.63 3.47-9.87 3.47-15.57v-0.52c0-6.23-1.13-11.69-3.35-16.24-2.25-4.58-5.3-8.3-9.35-11.36-4.15-3.13-9.24-5.56-15.12-7.23-6.05-1.71-12.87-2.58-20.25-2.58h-44.51z"/>
	</g>
	<g id="Folder 3">
		<path id="&lt;Compound Path&gt;" fill-rule="evenodd" class="s2" d="m136.1 720.43c-12.98 0-25.37-2.37-36.81-7.05-11.45-4.69-21.53-11.33-29.94-19.75-8.41-8.41-15.18-18.51-20.12-30.03-4.94-11.54-7.45-24.24-7.45-37.74v-0.51c0-13.15 2.46-25.67 7.32-37.2 4.85-11.52 11.61-21.71 20.11-30.3 8.5-8.58 18.74-15.4 30.45-20.26 11.71-4.85 24.65-7.31 38.47-7.31 9.3 0 17.87 0.92 25.49 2.74 7.63 1.82 14.72 4.46 21.08 7.86 6.34 3.39 12.16 7.49 17.3 12.19 5.1 4.67 9.7 9.85 13.69 15.39l1.59 2.22-41.37 32.02-1.74-2.2c-4.84-6.13-10.22-11.02-15.98-14.54-5.61-3.43-12.53-5.16-20.57-5.16-5.8 0-11.14 1.14-15.9 3.4-4.77 2.27-8.94 5.41-12.39 9.32-3.47 3.94-6.23 8.67-8.21 14.06-1.98 5.4-2.99 11.21-2.99 17.27v0.5c0 6.24 1.01 12.18 3 17.67 1.98 5.47 4.74 10.24 8.2 14.17 3.45 3.92 7.62 7.06 12.39 9.32 4.75 2.26 10.1 3.41 15.9 3.41 4.29 0 8.27-0.49 11.81-1.43 3.51-0.94 6.75-2.32 9.63-4.11 2.96-1.83 5.79-4.02 8.42-6.5 2.69-2.51 5.38-5.37 8.02-8.5l1.68-1.99 41.46 29.53-1.7 2.32c-4.3 5.83-9.04 11.32-14.11 16.3-5.13 5.05-11.05 9.47-17.58 13.12-6.52 3.66-13.91 6.56-21.96 8.64-8.05 2.08-17.2 3.13-27.19 3.13zm682.62-3.55v-134.31h-53.22v-48.74h161.26v48.74h-53.21v134.31zm-202.18 0v-183.05h147.57v48.74h-92.75v24.25h83.88v46.71h-83.88v63.35zm-69.02 0l-12.92-31.67h-64.61l-12.67 31.67h-116.71l-35.73-53.72h-17.19v53.72h-54.83v-183.05h86.71c13.94 0 25.94 1.76 35.67 5.23 9.83 3.51 17.95 8.52 24.14 14.89 10.94 10.58 16.52 25.16 16.52 43.28v0.5c0 14.24-3.51 26.23-10.44 35.64-6.23 8.47-14.51 15.2-24.64 20.04l40.46 59.12 76.07-179.97h51.14l77.92 184.32zm-29.37-75.35l-15.63-39.89-15.84 39.89zm-200.86-22.55c7.72 0 13.68-1.7 17.7-5.05 3.92-3.26 5.82-7.57 5.82-13.15v-0.51c0-6.2-1.94-10.63-5.94-13.56-4.21-3.08-10.22-4.65-17.84-4.65h-29.35v36.92z"/>
		<path id="&lt;Compound Path&gt;" fill-rule="evenodd" class="s1" d="m164.28 530.27c7.86 1.87 15.18 4.61 21.75 8.11 6.55 3.51 12.57 7.74 17.88 12.6 5.24 4.8 9.98 10.13 14.08 15.83l3.19 4.43-4.33 3.35-36.99 28.63-4.44 3.44-3.47-4.41c-4.63-5.86-9.76-10.53-15.23-13.88-5.16-3.15-11.59-4.74-19.1-4.74-5.37 0-10.31 1.05-14.68 3.12-4.43 2.11-8.29 5.02-11.48 8.64-3.24 3.68-5.82 8.11-7.68 13.17-1.87 5.08-2.82 10.56-2.82 16.29v0.51c0 5.9 0.95 11.52 2.83 16.7 1.86 5.13 4.44 9.59 7.67 13.26 3.19 3.63 7.05 6.53 11.49 8.64 4.36 2.07 9.29 3.13 14.67 3.13 4.05 0 7.78-0.45 11.09-1.34 3.24-0.86 6.22-2.13 8.86-3.77 2.79-1.74 5.48-3.81 7.98-6.16 2.6-2.44 5.22-5.22 7.78-8.26l3.36-3.99 4.25 3.03 37 26.35 4.68 3.34-3.4 4.62c-4.38 5.96-9.23 11.56-14.4 16.65-5.32 5.23-11.43 9.8-18.19 13.58-6.73 3.77-14.35 6.76-22.63 8.9-8.29 2.14-17.67 3.22-27.9 3.22-13.36 0-26.09-2.44-37.88-7.26-11.8-4.83-22.19-11.68-30.87-20.37-8.67-8.66-15.64-19.06-20.72-30.92-5.09-11.89-7.68-24.96-7.68-38.85v-0.5c0-13.54 2.54-26.43 7.54-38.31 4.99-11.85 11.95-22.34 20.71-31.18 8.76-8.86 19.32-15.89 31.38-20.89 12.05-5 25.35-7.53 39.55-7.53 9.52 0 18.32 0.95 26.15 2.82zm367.55 2.92l75.52 178.66 3.32 7.86h-65.05l-1.44-3.52-11.48-28.15h-60.79l-11.25 28.12-1.42 3.55h-120.14l-1.69-2.52-34.05-51.2h-12.84v53.72h-60.49v-188.71h89.54c14.27 0 26.59 1.81 36.63 5.4 10.21 3.65 18.67 8.87 25.15 15.51 11.53 11.2 17.38 26.44 17.38 45.32v0.5c0 14.86-3.7 27.41-10.99 37.32-5.89 8.01-13.53 14.53-22.76 19.43l35.71 52.17 73.32-173.46 1.46-3.46h54.9zm-52.6 2.21l-75.52 178.66h51.69l12.67-31.68h68.43l12.92 31.68h52.72l-75.52-178.66zm450.36 50h-53.21v134.32h-60.49v-134.32h-141.7v18.59h83.89v52.37h-83.89v63.36h-60.48v-188.72h315.88zm-310.22-48.74v177.39h49.16v-63.35h83.88v-41.06h-83.88v-29.9h92.75v-43.08zm-383.67 0v177.39h49.16v-53.72h21.54l35.73 53.72h56.77l-42.32-61.83q16.72-7.09 26.61-20.53 9.88-13.43 9.88-33.96v-0.5q0-26.1-15.71-41.31-8.87-9.12-23.06-14.19-14.2-5.07-34.72-5.07zm49.16 42.57h32.19q12.41 0 19.51 5.2 7.1 5.19 7.1 15.84v0.5q0 9.64-6.85 15.34-6.84 5.7-19.51 5.7h-32.44zm-184.11-39.03q-17.1 7.1-29.52 19.64-12.42 12.55-19.51 29.4-7.1 16.86-7.1 36.11v0.51q0 19.77 7.22 36.62 7.22 16.85 19.52 29.14 12.29 12.29 29.01 19.14 16.73 6.84 35.74 6.84 14.69 0 26.48-3.04 11.78-3.04 21.29-8.37 9.5-5.32 16.97-12.67 7.48-7.34 13.82-15.96l-37-26.36q-4.06 4.82-8.24 8.74-4.18 3.94-8.87 6.85-4.69 2.91-10.39 4.43-5.7 1.52-12.54 1.52-9.38 0-17.11-3.67-7.73-3.68-13.3-10.01-5.58-6.34-8.75-15.08-3.17-8.74-3.16-18.63v-0.51q-0.01-9.62 3.16-18.24 3.17-8.62 8.75-14.95 5.57-6.34 13.3-10.01 7.73-3.68 17.11-3.68 12.92 0 22.04 5.58 9.13 5.57 16.73 15.2l37-28.63q-5.83-8.11-13.31-14.95-7.47-6.85-16.72-11.79-9.26-4.94-20.4-7.6-11.15-2.66-24.84-2.66-20.27 0-37.38 7.09zm401.8 53.73l19.76 50.43h-39.78zm-212.03 22.21h26.78c7.05 0 12.39-1.47 15.89-4.39 3.28-2.73 4.81-6.22 4.81-10.98v-0.51c0-6.96-2.74-9.77-4.78-11.27-3.73-2.72-9.17-4.1-16.18-4.1h-26.52zm223.49 22.55l-11.5-29.34-11.65 29.34zm254.33-102.04v43.08h53.22v134.31h49.16v-134.31h53.22v-43.08z"/>
	</g>
	<g id="Folder 2">
		<path id="&lt;Path&gt;" class="s3" d="m552.37 506.46l-129.08-166.88v166.88h-47.89v-247.9h43.59l125.29 162.04v-162.04h47.88v247.9z"/>
		<path id="&lt;Compound Path&gt;" fill-rule="evenodd" class="s1" d="m594.99 509.29h-44.01l-1.7-2.19-123.16-159.24v161.43h-53.55v-253.56h47.81l1.7 2.2 119.37 154.38v-156.58h53.54zm-47.88-247.9v167.49l-129.5-167.49h-39.38v242.24h42.22v-172.33l133.31 172.33h35.57v-242.24z"/>
		<path id="&lt;Path&gt;" fill-rule="evenodd" class="s1" d="m482.15 331.13v64.47h-5.48v-64.47z"/>
		<path id="&lt;Compound Path&gt;" fill-rule="evenodd" class="s1" d="m411.96 336.8l6.96-0.87 5.62-0.68 0.05-0.03 55.32-6.91 68.92 35.16 1.53 4.2-102.19 14.39-37.96-42.33zm38.33 39.42l87.34-12.3-58.72-29.96-59.81 7.47z"/>
		<path id="&lt;Path&gt;" class="s1" d="m503.24 316.68l0.24-0.41c1.07-1.83 6.11-7.42 25.96-2.35q1.95 0.5 3.77 1.1c17.31 5.73 20.51 16.84 20.64 17.31l0.33 1.23-26.56 51.21-7.68-2.54-1.84 3.96-1.3 0.46c-0.25 0.1-6.37 2.21-14.13-0.35-4.45-1.48-8.56-4.19-12.21-8.05l-1.2-1.27 0.39-1.71c5.3-23.35 12.72-55.04 12.72-55.04z"/>
		<path id="&lt;Path&gt;" class="s0" d="m537.19 337.37l-21.49 46.19c0 0-11.75 4.18-22.85-7.56 5.36-23.59 12.44-51.5 12.44-51.5 0 0 8.94 13.48 31.9 12.87z"/>
		<path id="&lt;Path&gt;" class="s4" d="m537.1 334.09c-5.27 0.14-10.18-0.51-14.61-1.93l2.79-8.43c0 0 14.03 4.32 13.98 10.3z"/>
		<path id="&lt;Path&gt;" class="s0" d="m528.63 317.1c19 4.85 22.05 16.09 22.05 16.09l-24.69 47.58-4.65-1.54 19.51-41.96 1.5-3.28c0.05-7-9.71-11.29-15.66-13.26q-0.43-0.14-0.44-0.14l-3.07-0.94-1.02 3.05-2.75 8.33c-14.05-6.75-13.1-13.11-13.1-13.11 0 0 3.32-5.67 22.32-0.82z"/>
		<path id="&lt;Path&gt;" class="s1" d="m462.43 317.03l0.09-0.48c0.39-2.08 3.25-9.04 23.65-10.97q2-0.19 3.91-0.24c18.24-0.45 25 8.93 25.28 9.33l0.73 1.05-7.72 57.17-8.08 0.19-0.39 4.36-1.07 0.87c-0.21 0.17-5.26 4.23-13.42 4.43-4.69 0.12-9.47-1.04-14.21-3.45l-1.56-0.79-0.21-1.74c-2.89-23.77-6.61-56.1-6.61-56.1z"/>
		<path id="&lt;Path&gt;" class="s5" d="m501.38 325.03l-4.63 50.74c0 0-9.66 7.9-24.07 0.6-2.92-24.01-5.67-52.67-5.67-52.67 0 0 12.96 9.66 34.37 1.33z"/>
		<path id="&lt;Path&gt;" class="s4" d="m500.19 321.98c-4.92 1.91-9.76 2.95-14.41 3.12l-0.21-8.88c0 0 14.66-0.67 16.63 4.97z"/>
		<path id="&lt;Path&gt;" class="s5" d="m486.48 308.85c19.52-1.85 26.18 7.7 26.18 7.7l-7.17 53.12-4.9 0.12 4.21-46.08 0.29-3.6c-2.31-6.61-12.95-7.34-19.21-7.19q-0.46 0.02-0.46 0.02l-3.21 0.15 0.07 3.21 0.22 8.77c-15.5-1.62-16.75-7.91-16.75-7.91 0 0 1.21-6.46 20.73-8.31z"/>
		<path id="&lt;Path&gt;" class="s1" d="m467.17 313.12l-0.19-0.47c-0.86-2.1-5.36-8.76-27.12-6.36q-2.13 0.23-4.15 0.6c-19.17 3.48-24.22 14.76-24.42 15.24l-0.54 1.25 20.47 58.14 8.49-1.54 1.36 4.47 1.31 0.68c0.26 0.14 6.42 3.28 15 1.73 4.93-0.9 9.68-3.15 14.12-6.69l1.46-1.17-0.16-1.86c-2.12-25.5-5.24-60.13-5.24-60.13z"/>
		<path id="&lt;Path&gt;" class="s2" d="m428.16 329.94l15.84 52.09c0 0 11.82 6.17 25.31-4.6-2.15-25.75-5.48-56.34-5.48-56.34 0 0-11.46 12.92-35.67 8.85z"/>
		<path id="&lt;Path&gt;" class="s4" d="m428.74 326.48c5.56 0.94 10.86 0.98 15.75 0.15l-1.69-9.34c0 0-15.49 2.47-16.33 8.81z"/>
		<path id="&lt;Path&gt;" class="s2" d="m440.24 309.78c-20.82 2.29-25.72 13.72-25.72 13.72l19.01 54.04 5.16-0.94-14.4-47.31-1.08-3.69c0.99-7.42 11.96-10.49 18.55-11.69q0.47-0.09 0.48-0.09l3.39-0.54 0.62 3.38 1.67 9.22c15.87-5.04 15.81-11.9 15.81-11.9 0 0-2.66-6.5-23.49-4.2z"/>
		<path id="&lt;Path&gt;" class="s1" d="m410.82 338.7v74.26l35.83 48.73 101.31-17.13 1.42-79.59-0.55-1.52-1.71-0.87-96.82 13.64-35.66-39.77-2.66 0.32z"/>
		<path id="&lt;Path&gt;" class="s6" d="m416.31 346.53l31.86 35.53 95.66-13.47-1.28 71.32-93.48 15.8-32.76-44.55z"/>
		<path id="&lt;Path&gt;" fill-rule="evenodd" class="s1" d="m451.97 379.14v79.56h-5.48v-79.56z"/>
		<path id="&lt;Path&gt;" class="s1" d="m392.5 371.06l38 54.72 21.98-47.12-37.84-42.21-2.66 0.32-1.76 2.95z"/>
		<path id="&lt;Path&gt;" class="s6" d="m429.56 414.81l-30.59-44.05 15.11-26.72 31.9 35.59z"/>
		<path id="&lt;Path&gt;" class="s1" d="m446.06 376.82l9.15 54.87 111.58-18.84-17.97-49.4-1.7-0.87z"/>
		<path id="&lt;Path&gt;" class="s6" d="m452.4 381.47l92.41-13.02 14.57 40.08-99.66 16.83z"/>
	</g>
</svg>