<svg version="1.2" xmlns="http://www.w3.org/2000/svg" viewBox="0 0 1640 260" width="2000" height="317">
	<style>
		.s0 { fill: #f2765a } 
		.s1 { fill: #050505 } 
		.s2 { fill: #f07aab } 
		.s3 { fill: #0fa99d } 
		.s4 { fill: #fefefe } 
		.s5 { fill: #9269ad } 
		.s6 { fill: #d0af8a } 
	</style>
	<path id="&lt;Path&gt;" class="s0" d="m821.86 234.49l-108.88-140.76v140.76h-40.38v-209.1h36.76l105.68 136.67v-136.67h40.39v209.1z"/>
	<path id="&lt;Compound Path&gt;" fill-rule="evenodd" class="s1" d="m857.82 236.88h-37.13l-1.43-1.85-103.89-134.31v136.16h-45.16v-213.88h40.32l1.44 1.86 100.69 130.21v-132.07h45.16zm-40.39-209.11v141.28l-109.24-141.28h-33.21v204.34h35.62v-145.37l112.44 145.37h30v-204.34z"/>
	<path id="&lt;Compound Path&gt;" fill-rule="evenodd" class="s2" d="m585.64 207.98v-139.58h-52.16v-14.82h120.2v14.82h-52.15v139.58zm-93.04 0l-101.84-128.49v128.49h-15.46v-154.4h14.01l99.71 125.71v-125.71h15.46v154.4zm-158.49-154.4v154.41h-15.89v-154.41zm-62.99 154.4l-47.66-61.99h-45.39v61.99h-15.89v-154.4h65.23c9.5 0 18.05 1.38 25.41 4.1 7.42 2.75 13.6 6.56 18.39 11.35 3.77 3.77 6.74 8.23 8.85 13.27 2.11 5.05 3.18 10.5 3.18 16.2v0.43c0 6.58-1.19 12.55-3.53 17.76-2.33 5.2-5.62 9.74-9.76 13.51-4.11 3.73-9.02 6.79-14.59 9.09-4.34 1.8-9.03 3.17-13.99 4.11l49.9 64.58zm-45-76.81c6.02 0 11.65-0.76 16.75-2.26 5.04-1.48 9.42-3.62 13.02-6.36 3.54-2.71 6.38-6.05 8.41-9.93 2.02-3.86 3.04-8.35 3.04-13.37v-0.43c0-9.46-3.37-16.7-10.3-22.13-7.02-5.5-17.21-8.29-30.28-8.29h-48.7v62.77zm-206.74 76.81v-154.4h56.68c8.46 0 16.28 1.07 23.25 3.2 7.03 2.15 13.19 5.31 18.32 9.39 5.17 4.13 9.25 9.23 12.1 15.16 2.85 5.94 4.3 12.79 4.3 20.38v0.43c0 8.18-1.68 15.53-4.98 21.84-3.29 6.28-7.8 11.59-13.4 15.77-5.56 4.15-12.08 7.3-19.38 9.36-7.22 2.04-14.96 3.08-22.99 3.08h-38.01v55.79zm54.55-70.61c6.71 0 12.88-0.83 18.33-2.48 5.39-1.62 10.05-3.98 13.85-7 3.76-2.99 6.74-6.66 8.86-10.91 2.1-4.24 3.17-9.02 3.17-14.2v-0.43c0-5.63-1.04-10.59-3.07-14.76-2.04-4.15-4.93-7.66-8.6-10.43-3.73-2.82-8.29-5-13.53-6.49-5.32-1.5-11.29-2.27-17.73-2.27h-39.94v68.97z"/>
	<path id="&lt;Compound Path&gt;" fill-rule="evenodd" class="s1" d="m656.07 70.79h-52.15v139.58h-20.67v-139.58h-52.16v-19.6h124.98zm-149.2 139.58h-15.42l-1.43-1.8-96.87-122.22v124.02h-20.24v-159.18h17.56l1.43 1.81 94.73 119.44v-121.25h20.24zm-170.37 0h-20.66v-159.18h20.66zm-82.84-154.93c7.73 2.86 14.21 6.86 19.24 11.89 3.99 3.99 7.14 8.72 9.37 14.04 2.23 5.35 3.36 11.11 3.36 17.13v0.43c0 6.91-1.26 13.21-3.73 18.73-2.48 5.5-5.95 10.31-10.34 14.3-4.31 3.92-9.46 7.13-15.28 9.53q-5.07 2.1-10.7 3.45l44.61 57.73 5.95 7.7h-26.19l-1.43-1.87-46.24-60.12h-41.82v61.99h-20.67v-159.19h67.62c9.79 0 18.61 1.43 26.25 4.26zm-89.09 0.52v149.63h11.11v-61.99h48.96l47.66 61.99h14.11l-49.38-63.91q9.41-1.28 17.43-4.6 8.01-3.31 13.89-8.66 5.88-5.34 9.19-12.71 3.31-7.38 3.32-16.78v-0.43q-0.01-8.12-3-15.29-2.99-7.16-8.33-12.5-6.85-6.84-17.53-10.8-10.69-3.95-24.59-3.95zm-64.55-1.47c7.32 2.24 13.75 5.54 19.11 9.82 5.46 4.35 9.75 9.72 12.77 15.98 3 6.26 4.53 13.47 4.53 21.42v0.42c0 8.58-1.77 16.3-5.25 22.95-3.46 6.61-8.2 12.18-14.09 16.57-5.79 4.33-12.57 7.61-20.15 9.75-7.44 2.11-15.39 3.17-23.64 3.17h-35.63v55.8h-20.66v-159.19h59.06c8.69 0 16.75 1.12 23.95 3.31zm-78.24 1.47v149.63h11.12v-55.79h40.4q11.75 0 22.33-2.99 10.59-2.99 18.6-8.98 8.02-5.98 12.72-14.96 4.7-8.98 4.7-20.74v-0.42q0-10.91-4.06-19.35-4.06-8.44-11.43-14.33-7.38-5.87-17.53-8.97-10.16-3.1-22.56-3.1zm514.1 0v10.05h52.15v139.58h11.12v-139.58h52.16v-10.05zm-44.46 0v130.18l-103.25-130.18h-10.47v149.63h10.68v-132.96l105.39 132.96h8.34v-149.63zm-170.8 0v149.63h11.12v-149.63zm-144.93 10.05h51.09q20.52 0 31.74 8.79 11.22 8.79 11.22 24.02v0.42q0 8.15-3.31 14.48-3.31 6.32-9.08 10.72-5.77 4.4-13.79 6.76-8.02 2.35-17.42 2.35h-50.45zm4.77 62.77h45.68c5.78 0 11.19-0.72 16.07-2.16 4.76-1.39 8.88-3.4 12.24-5.97 3.32-2.52 5.85-5.52 7.75-9.14 1.84-3.51 2.77-7.63 2.77-12.26v-0.43c0-8.68-3.07-15.3-9.39-20.25-6.59-5.16-16.28-7.78-28.8-7.78h-46.32zm-147.56-62.77h42.32q10.05-0.01 18.39 2.36 8.33 2.37 14.32 6.88 5.98 4.52 9.29 11.29 3.32 6.77 3.32 15.8v0.43q0 8.39-3.42 15.27-3.42 6.88-9.51 11.72-6.1 4.84-14.65 7.41-8.55 2.58-19.02 2.58h-41.04zm4.77 68.98h36.27c6.48 0 12.42-0.8 17.64-2.38 5.1-1.54 9.49-3.75 13.06-6.59 3.49-2.77 6.25-6.17 8.2-10.1 1.94-3.9 2.92-8.32 2.92-13.14v-0.43c0-5.26-0.95-9.87-2.82-13.7-1.9-3.87-4.48-7-7.89-9.58-3.5-2.64-7.79-4.69-12.75-6.1-5.11-1.45-10.85-2.18-17.08-2.18h-37.55z"/>
	<path id="&lt;Compound Path&gt;" fill-rule="evenodd" class="s3" d="m953.9 210.98c-10.95 0-21.4-2-31.05-5.95-9.66-3.95-18.16-9.56-25.26-16.66-7.09-7.1-12.8-15.62-16.96-25.33-4.18-9.73-6.29-20.44-6.29-31.83v-0.43c0-11.1 2.08-21.66 6.17-31.39 4.09-9.71 9.8-18.31 16.96-25.55 7.17-7.24 15.82-12.99 25.69-17.09 9.87-4.09 20.79-6.16 32.45-6.16 7.84 0 15.07 0.77 21.5 2.3 6.43 1.54 12.42 3.77 17.78 6.63 5.35 2.86 10.26 6.32 14.59 10.29 4.3 3.94 8.19 8.3 11.55 12.98l1.35 1.87-34.9 27.01-1.47-1.86c-4.08-5.16-8.62-9.29-13.48-12.26-4.73-2.89-10.57-4.35-17.35-4.35-4.89 0-9.4 0.96-13.41 2.86-4.03 1.92-7.55 4.57-10.45 7.87-2.93 3.32-5.26 7.31-6.93 11.86-1.67 4.55-2.52 9.45-2.52 14.56v0.43c0 5.26 0.85 10.27 2.53 14.9 1.67 4.61 3.99 8.63 6.92 11.95 2.9 3.31 6.42 5.95 10.45 7.87 4 1.9 8.51 2.87 13.41 2.87 3.62 0 6.97-0.41 9.96-1.21 2.97-0.79 5.7-1.95 8.12-3.46 2.5-1.55 4.89-3.39 7.11-5.48 2.26-2.13 4.54-4.54 6.76-7.17l1.42-1.69 34.97 24.92-1.44 1.95c-3.62 4.92-7.62 9.55-11.9 13.75-4.32 4.26-9.31 7.99-14.83 11.07-5.49 3.09-11.73 5.54-18.52 7.29-6.79 1.75-14.51 2.64-22.93 2.64zm575.79-2.99v-113.3h-44.89v-41.11h136.03v41.11h-44.89v113.3zm-170.54 0v-154.41h124.48v41.11h-78.24v20.45h70.76v39.41h-70.76v53.44zm-58.21 0l-10.91-26.72h-54.49l-10.69 26.72h-98.45l-30.14-45.32h-14.5v45.32h-46.24v-154.41h73.14c11.76 0 21.88 1.48 30.09 4.41 8.29 2.96 15.14 7.19 20.36 12.56 9.22 8.93 13.93 21.23 13.93 36.5v0.43c0 12.01-2.96 22.12-8.8 30.06-5.26 7.14-12.24 12.82-20.79 16.9l34.13 49.87 64.17-151.8h43.13l65.72 155.48zm-24.77-63.57l-13.18-33.64-13.36 33.64zm-169.43-19.02c6.52 0 11.54-1.43 14.93-4.25 3.31-2.76 4.91-6.39 4.91-11.1v-0.43c0-5.23-1.64-8.96-5.01-11.44-3.55-2.6-8.62-3.92-15.05-3.92h-24.76v31.14z"/>
	<path id="&lt;Compound Path&gt;" fill-rule="evenodd" class="s1" d="m977.66 50.57c6.64 1.59 12.81 3.89 18.35 6.85 5.53 2.95 10.6 6.53 15.09 10.63 4.42 4.05 8.41 8.54 11.87 13.34l2.69 3.75-3.65 2.82-31.2 24.15-3.74 2.9-2.93-3.72c-3.91-4.94-8.23-8.88-12.85-11.7-4.35-2.66-9.77-4.01-16.11-4.01-4.53 0-8.7 0.89-12.38 2.64-3.74 1.78-7 4.23-9.69 7.28-2.73 3.11-4.91 6.84-6.48 11.11-1.57 4.29-2.38 8.91-2.38 13.74v0.43c0 4.98 0.81 9.72 2.39 14.09 1.57 4.33 3.75 8.09 6.47 11.19 2.69 3.06 5.95 5.51 9.69 7.28 3.68 1.75 7.84 2.64 12.38 2.64 3.41 0 6.56-0.38 9.35-1.12 2.73-0.73 5.25-1.8 7.48-3.19 2.35-1.46 4.62-3.21 6.73-5.19 2.19-2.06 4.4-4.41 6.56-6.97l2.84-3.37 3.58 2.56 31.21 22.23 3.95 2.81-2.87 3.9c-3.7 5.03-7.78 9.76-12.15 14.05-4.48 4.4-9.64 8.26-15.34 11.45-5.67 3.18-12.1 5.71-19.09 7.51-6.99 1.8-14.9 2.72-23.53 2.72-11.27 0-22.01-2.07-31.95-6.13-9.96-4.08-18.72-9.85-26.05-17.18-7.31-7.31-13.19-16.08-17.47-26.08-4.3-10.03-6.48-21.06-6.48-32.77v-0.43c0-11.42 2.14-22.29 6.36-32.31 4.21-10 10.08-18.85 17.47-26.3 7.39-7.48 16.29-13.4 26.47-17.62 10.16-4.22 21.38-6.35 33.36-6.35 8.03 0 15.45 0.8 22.05 2.37zm310.04 2.47l63.7 150.7 2.8 6.63h-54.87l-1.21-2.97-9.69-23.75h-51.28l-9.48 23.72-1.2 3h-101.34l-1.42-2.13-28.73-43.18h-10.83v45.31h-51.02v-159.18h75.53c12.03 0 22.42 1.53 30.89 4.55 8.61 3.08 15.75 7.48 21.22 13.09 9.72 9.44 14.65 22.3 14.65 38.22v0.43c0 12.53-3.11 23.12-9.26 31.48-4.97 6.76-11.42 12.25-19.2 16.39l30.12 44.01 61.85-146.32 1.23-2.92h46.31zm-44.38 1.86l-63.7 150.7h43.61l10.69-26.72h57.72l10.89 26.72h44.47l-63.7-150.7zm379.89 42.18h-44.89v113.3h-51.02v-113.3h-119.53v15.68h70.76v44.18h-70.76v53.44h-51.02v-159.19h266.46zm-261.68-41.11v149.63h41.47v-53.44h70.75v-34.63h-70.75v-25.22h78.24v-36.34zm-323.64 0v149.63h41.47v-45.32h18.17l30.14 45.32h47.88l-35.69-52.16q14.1-5.98 22.44-17.31 8.34-11.33 8.34-28.64v-0.43q0-22.02-13.26-34.84-7.48-7.7-19.45-11.97-11.97-4.28-29.28-4.28zm41.47 35.91h27.14q10.48 0 16.46 4.38 5.99 4.38 5.99 13.36v0.43q0 8.13-5.77 12.93-5.77 4.81-16.46 4.81h-27.36zm-155.3-32.92q-14.43 5.99-24.9 16.57-10.48 10.58-16.46 24.8-5.99 14.22-5.99 30.46v0.43q0 16.67 6.09 30.89 6.09 14.21 16.46 24.58 10.37 10.37 24.48 16.14 14.11 5.77 30.14 5.77 12.39 0 22.34-2.57 9.94-2.56 17.95-7.05 8.02-4.49 14.32-10.69 6.31-6.2 11.65-13.47l-31.2-22.23q-3.43 4.07-6.95 7.38-3.53 3.32-7.48 5.77-3.96 2.46-8.77 3.74-4.81 1.28-10.58 1.28-7.91 0-14.43-3.1-6.52-3.1-11.22-8.44-4.71-5.34-7.37-12.72-2.68-7.37-2.68-15.71v-0.43q0-8.12 2.68-15.39 2.66-7.27 7.37-12.61 4.7-5.34 11.22-8.45 6.52-3.09 14.43-3.09 10.9 0 18.6 4.7 7.7 4.7 14.11 12.82l31.21-24.15q-4.92-6.84-11.23-12.61-6.3-5.78-14.1-9.94-7.81-4.17-17.21-6.42-9.41-2.24-20.95-2.24-17.1 0-31.53 5.98zm338.92 45.32l16.67 42.54h-33.56zm-178.85 18.74h22.59c5.94 0 10.45-1.25 13.4-3.7 2.77-2.31 4.06-5.25 4.06-9.27v-0.43c0-5.87-2.31-8.24-4.03-9.5-3.14-2.3-7.73-3.47-13.65-3.47h-22.37zm188.52 19.03l-9.7-24.75-9.83 24.75zm214.53-86.07v36.34h44.89v113.29h41.47v-113.29h44.89v-36.34z"/>
	<path id="&lt;Path&gt;" fill-rule="evenodd" class="s1" d="m762.64 86.6v54.38h-4.63v-54.38z"/>
	<path id="&lt;Compound Path&gt;" fill-rule="evenodd" class="s1" d="m703.43 91.38l5.87-0.73 4.74-0.58 0.04-0.02 46.66-5.83 58.14 29.66 1.29 3.54-86.2 12.14-32.02-35.71zm32.34 33.26l73.67-10.38-49.54-25.27-50.44 6.3z"/>
	<path id="&lt;Path&gt;" class="s1" d="m780.42 74.41l0.21-0.35c0.9-1.54 5.15-6.25 21.89-1.98q1.65 0.42 3.18 0.93c14.61 4.84 17.3 14.2 17.41 14.6l0.28 1.04-22.4 43.19-6.47-2.14-1.56 3.35-1.1 0.38c-0.21 0.08-5.37 1.86-11.91-0.3-3.76-1.24-7.22-3.53-10.3-6.78l-1.02-1.08 0.33-1.44c4.48-19.7 10.73-46.42 10.73-46.42z"/>
	<path id="&lt;Path&gt;" class="s2" d="m809.06 91.86l-18.12 38.97c0 0-9.92 3.52-19.28-6.39 4.52-19.89 10.49-43.43 10.49-43.43 0 0 7.54 11.36 26.91 10.85z"/>
	<path id="&lt;Path&gt;" class="s4" d="m808.99 89.09c-4.45 0.12-8.59-0.43-12.33-1.62l2.36-7.11c0 0 11.83 3.64 11.79 8.69z"/>
	<path id="&lt;Path&gt;" class="s2" d="m801.84 74.76c16.03 4.1 18.6 13.57 18.6 13.57l-20.82 40.14-3.93-1.3 16.46-35.39 1.26-2.77c0.05-5.91-8.19-9.52-13.2-11.18q-0.37-0.12-0.38-0.12l-2.59-0.79-0.85 2.57-2.33 7.02c-11.84-5.69-11.04-11.05-11.04-11.05 0 0 2.8-4.78 18.82-0.7z"/>
	<path id="&lt;Path&gt;" class="s1" d="m746.01 74.7l0.07-0.4c0.33-1.75 2.74-7.62 19.94-9.25q1.69-0.16 3.31-0.2c15.38-0.38 21.08 7.53 21.32 7.86l0.61 0.89-6.51 48.22-6.81 0.17-0.34 3.67-0.9 0.74c-0.17 0.14-4.43 3.57-11.31 3.73-3.96 0.1-7.99-0.88-11.99-2.9l-1.32-0.67-0.18-1.47c-2.43-20.05-5.57-47.32-5.57-47.32z"/>
	<path id="&lt;Path&gt;" class="s5" d="m778.86 81.46l-3.91 42.8c0 0-8.14 6.66-20.3 0.5-2.46-20.26-4.79-44.43-4.79-44.43 0 0 10.93 8.15 29 1.13z"/>
	<path id="&lt;Path&gt;" class="s4" d="m777.85 78.88c-4.15 1.61-8.23 2.49-12.15 2.64l-0.18-7.5c0 0 12.37-0.56 14.03 4.2z"/>
	<path id="&lt;Path&gt;" class="s5" d="m766.29 67.8c16.46-1.56 22.08 6.5 22.08 6.5l-6.04 44.81-4.14 0.1 3.55-38.87 0.24-3.03c-1.94-5.58-10.92-6.2-16.2-6.07q-0.38 0.01-0.39 0.02l-2.7 0.12 0.06 2.71 0.18 7.4c-13.07-1.36-14.13-6.68-14.13-6.68 0 0 1.02-5.45 17.49-7.01z"/>
	<path id="&lt;Path&gt;" class="s1" d="m750 71.41l-0.16-0.4c-0.73-1.77-4.52-7.39-22.88-5.37q-1.8 0.2-3.5 0.51c-16.17 2.94-20.42 12.45-20.59 12.85l-0.46 1.06 17.26 49.05 7.17-1.31 1.15 3.78 1.1 0.57c0.22 0.11 5.41 2.77 12.65 1.45 4.16-0.75 8.17-2.65 11.91-5.64l1.23-0.98-0.13-1.57c-1.79-21.51-4.42-50.72-4.42-50.72z"/>
	<path id="&lt;Path&gt;" class="s3" d="m717.1 85.6l13.36 43.93c0 0 9.97 5.2 21.35-3.88-1.82-21.72-4.62-47.52-4.62-47.52 0 0-9.68 10.9-30.09 7.47z"/>
	<path id="&lt;Path&gt;" class="s4" d="m717.59 82.68c4.69 0.79 9.15 0.83 13.28 0.13l-1.43-7.89c0 0-13.06 2.09-13.77 7.44z"/>
	<path id="&lt;Path&gt;" class="s3" d="m727.29 68.59c-17.57 1.93-21.7 11.58-21.7 11.58l16.04 45.57 4.34-0.78-12.14-39.91-0.91-3.12c0.83-6.25 10.09-8.85 15.64-9.86q0.41-0.07 0.41-0.07l2.86-0.45 0.52 2.84 1.41 7.78c13.39-4.25 13.34-10.04 13.34-10.04 0 0-2.25-5.48-19.81-3.54z"/>
	<path id="&lt;Path&gt;" class="s1" d="m702.47 92.98v62.65l30.22 41.1 85.45-14.45 1.2-67.14-0.46-1.28-1.44-0.73-81.67 11.5-30.08-33.54-2.24 0.27z"/>
	<path id="&lt;Path&gt;" class="s6" d="m707.1 99.59l26.87 29.97 80.69-11.36-1.08 60.16-78.85 13.33-27.63-37.58z"/>
	<path id="&lt;Path&gt;" fill-rule="evenodd" class="s1" d="m737.18 127.1v67.11h-4.62v-67.11z"/>
	<path id="&lt;Path&gt;" class="s1" d="m687.02 120.28l32.05 46.16 18.54-39.75-31.92-35.61-2.24 0.28-1.49 2.48z"/>
	<path id="&lt;Path&gt;" class="s6" d="m718.28 157.18l-25.81-37.15 12.74-22.54 26.92 30.02z"/>
	<path id="&lt;Path&gt;" class="s1" d="m732.2 125.14l7.71 46.28 94.12-15.89-15.15-41.67-1.44-0.73z"/>
	<path id="&lt;Path&gt;" class="s6" d="m737.54 129.06l77.95-10.98 12.29 33.81-84.07 14.19z"/>
</svg>