<svg version="1.2" xmlns="http://www.w3.org/2000/svg" viewBox="0 0 303 320" width="2000" height="2112">
	<style>
		.s0 { fill: #f2765a } 
		.s1 { fill: #050505 } 
		.s2 { fill: #f07aab } 
		.s3 { fill: #fefefe } 
		.s4 { fill: #9269ad } 
		.s5 { fill: #0fa99d } 
		.s6 { fill: #d0af8a } 
	</style>
	<g id="Folder 1">
	</g>
	<g id="Folder 3">
	</g>
	<g id="Folder 2">
		<path id="&lt;Path&gt;" class="s0" d="m220.37 283.46l-129.08-166.88v166.88h-47.89v-247.9h43.59l125.29 162.04v-162.04h47.88v247.9z"/>
		<path id="&lt;Compound Path&gt;" fill-rule="evenodd" class="s1" d="m262.99 286.29h-44.01l-1.7-2.19-123.16-159.24v161.43h-53.55v-253.56h47.81l1.7 2.2 119.37 154.38v-156.58h53.54zm-47.88-247.9v167.49l-129.5-167.49h-39.38v242.24h42.22v-172.33l133.31 172.33h35.57v-242.24z"/>
		<path id="&lt;Path&gt;" fill-rule="evenodd" class="s1" d="m150.15 108.13v64.47h-5.48v-64.47z"/>
		<path id="&lt;Compound Path&gt;" fill-rule="evenodd" class="s1" d="m79.96 113.8l6.96-0.87 5.62-0.68 0.05-0.03 55.32-6.91 68.92 35.16 1.53 4.2-102.19 14.39-37.96-42.33zm38.33 39.42l87.34-12.3-58.72-29.96-59.81 7.47z"/>
		<path id="&lt;Path&gt;" class="s1" d="m171.24 93.68l0.24-0.41c1.07-1.83 6.11-7.42 25.96-2.35q1.95 0.5 3.77 1.1c17.31 5.73 20.51 16.84 20.64 17.31l0.33 1.23-26.56 51.21-7.68-2.54-1.84 3.96-1.3 0.46c-0.25 0.1-6.37 2.21-14.13-0.35-4.45-1.48-8.56-4.19-12.21-8.05l-1.2-1.27 0.39-1.71c5.3-23.35 12.72-55.04 12.72-55.04z"/>
		<path id="&lt;Path&gt;" class="s2" d="m205.19 114.37l-21.49 46.19c0 0-11.75 4.18-22.85-7.56 5.36-23.59 12.44-51.5 12.44-51.5 0 0 8.94 13.48 31.9 12.87z"/>
		<path id="&lt;Path&gt;" class="s3" d="m205.1 111.09c-5.27 0.14-10.18-0.51-14.61-1.93l2.79-8.43c0 0 14.03 4.32 13.98 10.3z"/>
		<path id="&lt;Path&gt;" class="s2" d="m196.63 94.1c19 4.85 22.05 16.09 22.05 16.09l-24.69 47.58-4.65-1.54 19.51-41.96 1.5-3.28c0.05-7-9.71-11.29-15.66-13.26q-0.43-0.14-0.44-0.14l-3.07-0.94-1.02 3.05-2.75 8.33c-14.05-6.75-13.1-13.11-13.1-13.11 0 0 3.32-5.67 22.32-0.82z"/>
		<path id="&lt;Path&gt;" class="s1" d="m130.43 94.03l0.09-0.48c0.39-2.08 3.25-9.04 23.65-10.97q2-0.19 3.91-0.24c18.24-0.45 25 8.93 25.28 9.33l0.73 1.05-7.72 57.17-8.08 0.19-0.39 4.36-1.07 0.87c-0.21 0.17-5.26 4.23-13.42 4.43-4.69 0.12-9.47-1.04-14.21-3.45l-1.56-0.79-0.21-1.74c-2.89-23.77-6.61-56.1-6.61-56.1z"/>
		<path id="&lt;Path&gt;" class="s4" d="m169.38 102.03l-4.63 50.74c0 0-9.66 7.9-24.07 0.6-2.92-24.01-5.67-52.67-5.67-52.67 0 0 12.96 9.66 34.37 1.33z"/>
		<path id="&lt;Path&gt;" class="s3" d="m168.19 98.98c-4.92 1.91-9.76 2.95-14.41 3.12l-0.21-8.88c0 0 14.66-0.67 16.63 4.97z"/>
		<path id="&lt;Path&gt;" class="s4" d="m154.48 85.85c19.52-1.85 26.18 7.7 26.18 7.7l-7.17 53.12-4.9 0.12 4.21-46.08 0.29-3.6c-2.31-6.61-12.95-7.34-19.21-7.19q-0.46 0.02-0.46 0.02l-3.21 0.15 0.07 3.21 0.22 8.77c-15.5-1.62-16.75-7.91-16.75-7.91 0 0 1.21-6.46 20.73-8.31z"/>
		<path id="&lt;Path&gt;" class="s1" d="m135.17 90.12l-0.19-0.47c-0.86-2.1-5.36-8.76-27.12-6.36q-2.13 0.23-4.15 0.6c-19.17 3.48-24.22 14.76-24.42 15.24l-0.54 1.25 20.47 58.14 8.49-1.54 1.36 4.47 1.31 0.68c0.26 0.14 6.42 3.28 15 1.73 4.93-0.9 9.68-3.15 14.12-6.69l1.46-1.17-0.16-1.86c-2.12-25.5-5.24-60.13-5.24-60.13z"/>
		<path id="&lt;Path&gt;" class="s5" d="m96.16 106.94l15.84 52.09c0 0 11.82 6.17 25.31-4.6-2.15-25.75-5.48-56.34-5.48-56.34 0 0-11.46 12.92-35.67 8.85z"/>
		<path id="&lt;Path&gt;" class="s3" d="m96.74 103.48c5.56 0.94 10.86 0.98 15.75 0.15l-1.69-9.34c0 0-15.49 2.47-16.33 8.81z"/>
		<path id="&lt;Path&gt;" class="s5" d="m108.24 86.78c-20.82 2.29-25.72 13.72-25.72 13.72l19.01 54.04 5.16-0.94-14.4-47.31-1.08-3.69c0.99-7.42 11.96-10.49 18.55-11.69q0.47-0.09 0.48-0.09l3.39-0.54 0.62 3.38 1.67 9.22c15.87-5.04 15.81-11.9 15.81-11.9 0 0-2.66-6.5-23.49-4.2z"/>
		<path id="&lt;Path&gt;" class="s1" d="m78.82 115.7v74.26l35.83 48.73 101.31-17.13 1.42-79.59-0.55-1.52-1.71-0.87-96.82 13.64-35.66-39.77-2.66 0.32z"/>
		<path id="&lt;Path&gt;" class="s6" d="m84.31 123.53l31.86 35.53 95.66-13.47-1.28 71.32-93.48 15.8-32.76-44.55z"/>
		<path id="&lt;Path&gt;" fill-rule="evenodd" class="s1" d="m119.97 156.14v79.56h-5.48v-79.56z"/>
		<path id="&lt;Path&gt;" class="s1" d="m60.5 148.06l38 54.72 21.98-47.12-37.84-42.21-2.66 0.32-1.76 2.95z"/>
		<path id="&lt;Path&gt;" class="s6" d="m97.56 191.81l-30.59-44.05 15.11-26.72 31.9 35.59z"/>
		<path id="&lt;Path&gt;" class="s1" d="m114.06 153.82l9.15 54.87 111.58-18.84-17.97-49.4-1.7-0.87z"/>
		<path id="&lt;Path&gt;" class="s6" d="m120.4 158.47l92.41-13.02 14.57 40.08-99.66 16.83z"/>
	</g>
</svg>