<svg version="1.2" xmlns="http://www.w3.org/2000/svg" viewBox="0 0 303 279" width="2000" height="1842">
	<style>
		.s0 { fill: #050505 } 
		.s1 { fill: #f07aab } 
		.s2 { fill: #fefefe } 
		.s3 { fill: #9269ad } 
		.s4 { fill: #0fa99d } 
		.s5 { fill: #d0af8a } 
	</style>
	<g id="Folder 1">
	</g>
	<g id="Folder 3">
	</g>
	<g id="Folder 2">
		<path id="&lt;Path&gt;" fill-rule="evenodd" class="s0" d="m155.47 54.87v104.61h-8.9v-104.61z"/>
		<path id="&lt;Compound Path&gt;" fill-rule="evenodd" class="s0" d="m41.58 64.06l11.28-1.41 9.13-1.11 0.07-0.04 89.76-11.22 111.84 57.06 2.48 6.81-165.82 23.35-61.59-68.69zm62.2 63.97l141.72-19.96-95.29-48.61-97.03 12.13z"/>
		<path id="&lt;Path&gt;" class="s0" d="m189.68 31.42l0.39-0.67c1.74-2.97 9.91-12.03 42.12-3.81 2.1 0.53 4.16 1.13 6.11 1.78 28.1 9.3 33.29 27.32 33.49 28.09l0.55 2-43.1 83.08-12.45-4.12-3 6.44-2.1 0.75c-0.42 0.15-10.34 3.58-22.92-0.59-7.23-2.39-13.89-6.78-19.82-13.05l-1.95-2.06 0.63-2.77c8.61-37.9 20.65-89.31 20.65-89.31z"/>
		<path id="&lt;Path&gt;" class="s1" d="m244.77 64.99l-34.86 74.95c0 0-19.08 6.78-37.09-12.28 8.7-38.26 20.19-83.55 20.19-83.55 0 0 14.5 21.86 51.76 20.88z"/>
		<path id="&lt;Path&gt;" class="s2" d="m244.63 59.66c-8.56 0.23-16.53-0.83-23.71-3.12l4.52-13.68c0 0 22.77 7.01 22.69 16.71z"/>
		<path id="&lt;Path&gt;" class="s1" d="m230.88 32.1c30.82 7.87 35.77 26.1 35.77 26.1l-40.05 77.22-7.55-2.51 31.67-68.08 2.41-5.33c0.1-11.36-15.75-18.31-25.4-21.5q-0.7-0.23-0.72-0.23l-4.98-1.53-1.64 4.94-4.47 13.51c-22.79-10.95-21.25-21.25-21.25-21.25 0 0 5.39-9.2 36.21-1.34z"/>
		<path id="&lt;Path&gt;" class="s0" d="m123.47 31.98l0.15-0.77c0.63-3.38 5.27-14.66 38.36-17.8 2.15-0.2 4.29-0.34 6.36-0.38 29.58-0.74 40.55 14.48 41 15.13l1.19 1.7-12.52 92.76-13.11 0.32-0.64 7.07-1.74 1.41c-0.34 0.28-8.53 6.86-21.77 7.19-7.61 0.19-15.37-1.7-23.05-5.6l-2.54-1.28-0.34-2.82c-4.69-38.58-10.72-91.03-10.72-91.03z"/>
		<path id="&lt;Path&gt;" class="s3" d="m186.67 44.97l-7.52 82.33c0 0-15.67 12.82-39.05 0.97-4.73-38.96-9.21-85.47-9.21-85.47 0 0 21.03 15.69 55.78 2.17z"/>
		<path id="&lt;Path&gt;" class="s2" d="m184.74 40.01c-7.99 3.11-15.85 4.8-23.38 5.08l-0.36-14.42c0 0 23.8-1.09 26.99 8.07z"/>
		<path id="&lt;Path&gt;" class="s3" d="m162.48 18.71c31.68-3 42.49 12.5 42.49 12.5l-11.63 86.19-7.96 0.2 6.83-74.78 0.47-5.83c-3.75-10.73-21.01-11.92-31.17-11.67q-0.74 0.03-0.75 0.03l-5.2 0.24 0.12 5.21 0.35 14.23c-25.15-2.62-27.17-12.84-27.17-12.84 0 0 1.95-10.48 33.62-13.48z"/>
		<path id="&lt;Path&gt;" class="s0" d="m131.16 25.65l-0.32-0.77c-1.39-3.41-8.69-14.22-44-10.33q-3.46 0.39-6.73 0.98c-31.11 5.65-39.29 23.95-39.62 24.72l-0.87 2.04 33.2 94.34 13.79-2.5 2.2 7.25 2.12 1.11c0.42 0.21 10.41 5.32 24.34 2.79 8-1.44 15.71-5.1 22.91-10.85l2.37-1.89-0.25-3.02c-3.46-41.38-8.52-97.57-8.52-97.57z"/>
		<path id="&lt;Path&gt;" class="s4" d="m67.86 52.94l25.71 84.51c0 0 19.17 10.01 41.06-7.46-3.49-41.79-8.89-91.42-8.89-91.42 0 0-18.6 20.97-57.88 14.37z"/>
		<path id="&lt;Path&gt;" class="s2" d="m68.81 47.32c9.02 1.52 17.61 1.6 25.55 0.25l-2.75-15.17c0 0-25.13 4.02-26.49 14.3z"/>
		<path id="&lt;Path&gt;" class="s4" d="m87.47 20.21c-33.79 3.73-41.75 22.28-41.75 22.28l30.86 87.67 8.36-1.51-23.35-76.77-1.76-5.99c1.6-12.04 19.41-17.03 30.09-18.97q0.78-0.13 0.79-0.13l5.5-0.88 1 5.48 2.71 14.96c25.75-8.19 25.66-19.31 25.66-19.31 0 0-4.33-10.55-38.11-6.83z"/>
		<path id="&lt;Path&gt;" class="s0" d="m39.73 67.15v120.49l58.13 79.07 164.38-27.79 2.31-129.15-0.9-2.47-2.77-1.4-157.1 22.13-57.86-64.54-4.31 0.53z"/>
		<path id="&lt;Path&gt;" class="s5" d="m48.64 79.85l51.68 57.66 155.22-21.87-2.07 115.74-151.68 25.63-53.15-72.28z"/>
		<path id="&lt;Path&gt;" fill-rule="evenodd" class="s0" d="m106.5 132.77v129.09h-8.9v-129.09z"/>
		<path id="&lt;Path&gt;" class="s0" d="m10 119.66l61.65 88.78 35.68-76.46-61.41-68.49-4.31 0.52-2.86 4.79z"/>
		<path id="&lt;Path&gt;" class="s5" d="m70.13 190.64l-49.63-71.47 24.51-43.36 51.76 57.74z"/>
		<path id="&lt;Path&gt;" class="s0" d="m96.91 129l14.84 89.03 181.04-30.57-29.14-80.16-2.76-1.4z"/>
		<path id="&lt;Path&gt;" class="s5" d="m107.2 136.54l149.93-21.12 23.65 65.04-161.71 27.3z"/>
	</g>
</svg>